<svg id="svg" version="1.1" xmlns="http://www.w3.org/2000/svg" xmlns:xlink="http://www.w3.org/1999/xlink" width="400" height="69.65299684542586" viewBox="0, 0, 400,69.65299684542586"><g id="svgg"><path id="path0" d="M167.391 0.125 C 167.433 0.194,159.150 0.225,148.984 0.195 L 130.500 0.139 130.500 23.236 L 130.500 46.333 137.167 46.333 L 143.833 46.333 143.833 28.331 L 143.833 10.329 159.748 10.336 C 168.502 10.340,175.648 10.397,175.630 10.463 C 175.575 10.658,176.006 11.349,176.133 11.271 C 176.198 11.231,176.231 19.053,176.207 28.654 L 176.164 46.109 176.665 46.036 C 176.967 45.992,177.167 46.036,177.167 46.148 C 177.167 46.262,177.524 46.333,178.093 46.333 C 178.639 46.333,178.979 46.268,178.921 46.174 C 178.859 46.073,180.817 46.053,184.249 46.118 L 189.676 46.220 189.652 41.110 C 189.640 38.300,189.581 36.000,189.523 36.000 C 189.464 36.000,189.442 29.691,189.473 21.979 C 189.529 8.127,189.497 6.713,189.132 6.938 C 189.023 7.006,188.996 6.975,189.065 6.863 C 189.212 6.625,188.887 5.386,188.636 5.231 C 188.514 5.155,188.495 5.191,188.583 5.333 C 188.670 5.473,188.653 5.511,188.536 5.439 C 188.436 5.377,188.381 5.184,188.415 5.009 C 188.449 4.834,188.219 4.330,187.905 3.888 C 187.590 3.446,187.333 3.143,187.333 3.215 C 187.333 3.288,187.228 3.250,187.100 3.132 C 186.972 3.013,186.896 2.886,186.931 2.849 C 187.113 2.659,184.568 1.105,184.323 1.257 C 184.237 1.310,184.167 1.289,184.167 1.210 C 184.167 1.020,183.044 0.620,182.849 0.741 C 182.764 0.793,182.669 0.757,182.637 0.662 C 182.606 0.567,182.120 0.473,181.558 0.453 C 180.996 0.433,180.574 0.353,180.621 0.276 C 180.668 0.198,180.247 0.161,179.686 0.193 C 179.125 0.224,178.666 0.194,178.666 0.125 C 178.667 0.056,176.829 0.000,174.583 0.000 C 171.972 0.000,170.500 0.060,170.500 0.167 C 170.500 0.258,170.200 0.333,169.833 0.333 C 169.467 0.333,169.167 0.258,169.167 0.167 C 169.167 0.075,168.750 0.000,168.240 0.000 C 167.731 0.000,167.348 0.056,167.391 0.125 M195.669 5.125 L 195.667 10.333 205.413 10.333 L 215.159 10.333 215.222 23.208 C 215.257 30.290,215.298 36.158,215.312 36.250 C 215.327 36.342,215.290 36.671,215.230 36.982 C 215.159 37.354,215.181 37.511,215.294 37.441 C 215.412 37.368,215.438 38.728,215.375 41.750 L 215.283 46.167 222.058 46.167 L 228.833 46.167 228.833 28.250 L 228.833 10.333 238.583 10.333 L 248.333 10.333 248.333 5.169 L 248.333 0.004 222.167 0.001 C 201.277 -0.001,195.999 0.040,195.997 0.207 C 195.996 0.348,195.942 0.335,195.833 0.167 C 195.727 0.002,195.671 1.701,195.669 5.125 M254.500 23.083 L 254.500 46.167 261.219 46.167 L 267.938 46.167 267.931 45.458 C 267.928 45.069,267.942 41.730,267.962 38.038 L 268.000 31.326 277.958 31.371 C 286.949 31.412,287.913 31.442,287.874 31.681 C 287.831 31.949,288.285 32.470,288.573 32.484 C 288.659 32.488,288.746 32.609,288.768 32.754 C 288.822 33.125,289.176 33.514,289.356 33.402 C 289.440 33.351,289.488 33.372,289.462 33.449 C 289.378 33.709,290.145 34.533,290.352 34.405 C 290.466 34.334,290.508 34.352,290.449 34.447 C 290.313 34.668,290.791 35.333,291.088 35.333 C 291.217 35.333,291.289 35.427,291.248 35.542 C 291.207 35.656,291.557 36.162,292.025 36.667 C 292.493 37.171,292.817 37.471,292.745 37.333 C 292.667 37.185,292.675 37.140,292.765 37.222 C 292.848 37.299,292.926 37.430,292.938 37.514 C 292.949 37.598,292.968 37.737,292.979 37.822 C 292.991 37.908,293.151 38.025,293.336 38.084 C 293.520 38.143,293.635 38.249,293.591 38.321 C 293.509 38.453,294.265 39.250,294.472 39.250 C 294.533 39.250,294.561 39.317,294.534 39.398 C 294.458 39.626,295.193 40.337,295.383 40.219 C 295.481 40.158,295.500 40.199,295.427 40.316 C 295.354 40.435,295.479 40.680,295.735 40.917 C 295.972 41.137,296.167 41.358,296.167 41.409 C 296.167 41.627,296.791 42.097,296.992 42.030 C 297.114 41.990,297.165 42.034,297.106 42.130 C 296.968 42.353,298.274 44.011,298.545 43.957 C 298.658 43.935,298.729 44.045,298.703 44.201 C 298.673 44.377,298.848 44.585,299.161 44.747 C 299.439 44.891,299.667 45.049,299.667 45.097 C 299.667 45.146,299.573 45.133,299.458 45.067 C 299.344 45.002,299.470 45.185,299.740 45.474 L 300.229 46.000 308.543 46.000 L 316.857 46.000 316.803 45.629 C 316.774 45.425,316.594 45.181,316.403 45.086 C 316.212 44.992,316.079 44.840,316.107 44.749 C 316.135 44.658,315.775 44.171,315.307 43.667 C 314.839 43.163,314.515 42.855,314.587 42.984 C 314.675 43.140,314.654 43.179,314.526 43.099 C 314.420 43.034,314.333 42.878,314.333 42.752 C 314.333 42.627,314.136 42.369,313.894 42.179 C 313.653 41.989,313.516 41.833,313.590 41.833 C 313.664 41.833,313.551 41.648,313.338 41.422 C 313.126 41.195,312.876 41.057,312.783 41.114 C 312.684 41.176,312.667 41.134,312.742 41.013 C 312.888 40.778,312.198 39.961,311.972 40.101 C 311.891 40.151,311.843 40.130,311.865 40.054 C 311.952 39.752,311.466 39.166,311.119 39.154 C 310.916 39.146,310.849 39.101,310.971 39.052 C 311.135 38.986,311.097 38.864,310.821 38.571 C 310.618 38.354,310.376 38.224,310.283 38.281 C 310.184 38.342,310.167 38.301,310.242 38.180 C 310.396 37.931,309.692 37.131,309.450 37.281 C 309.358 37.338,309.330 37.307,309.389 37.212 C 309.560 36.935,308.863 36.168,308.536 36.273 C 308.320 36.342,308.305 36.326,308.472 36.206 C 308.649 36.079,308.612 35.958,308.289 35.609 C 308.066 35.369,307.823 35.227,307.748 35.294 C 307.674 35.362,307.663 35.330,307.724 35.224 C 307.785 35.117,307.611 34.843,307.334 34.609 C 307.059 34.378,306.833 34.120,306.833 34.037 C 306.833 33.870,306.196 33.250,306.024 33.250 C 305.965 33.250,305.939 33.184,305.965 33.104 C 306.041 32.876,305.475 32.329,305.285 32.446 C 305.188 32.506,305.166 32.469,305.234 32.360 C 305.300 32.252,305.155 31.986,304.902 31.751 C 304.547 31.422,304.512 31.333,304.735 31.333 C 304.892 31.333,304.986 31.277,304.944 31.208 C 304.902 31.140,305.197 31.074,305.600 31.063 C 306.002 31.051,306.441 30.951,306.575 30.840 C 306.709 30.729,306.898 30.687,306.994 30.746 C 307.253 30.906,307.857 30.672,307.727 30.462 C 307.660 30.355,307.693 30.330,307.808 30.401 C 307.913 30.466,308.094 30.460,308.208 30.387 C 308.323 30.315,308.454 30.250,308.500 30.244 C 308.808 30.205,309.333 29.956,309.333 29.850 C 309.333 29.780,309.429 29.722,309.547 29.722 C 309.905 29.722,310.671 29.141,310.556 28.956 C 310.497 28.860,310.524 28.828,310.615 28.885 C 310.707 28.942,310.995 28.766,311.256 28.494 C 311.516 28.222,311.681 28.000,311.622 28.000 C 311.563 28.000,311.703 27.812,311.933 27.582 C 312.433 27.082,312.890 26.060,312.730 25.800 C 312.660 25.688,312.691 25.662,312.809 25.735 C 313.027 25.869,313.029 25.865,313.398 24.226 C 313.684 22.961,313.816 9.221,313.542 9.391 C 313.473 9.433,313.411 9.194,313.404 8.859 C 313.387 8.065,313.062 6.591,312.801 6.121 C 312.688 5.917,312.592 5.712,312.587 5.667 C 312.556 5.331,312.100 4.522,311.983 4.594 C 311.903 4.644,311.887 4.555,311.948 4.396 C 312.030 4.182,311.992 4.134,311.798 4.209 C 311.599 4.285,311.559 4.226,311.629 3.959 C 311.700 3.689,311.660 3.634,311.452 3.713 C 311.280 3.779,311.212 3.743,311.262 3.612 C 311.305 3.500,311.039 3.113,310.670 2.753 C 310.302 2.394,310.000 2.168,310.000 2.253 C 310.000 2.338,309.880 2.236,309.733 2.026 C 309.579 1.806,309.363 1.684,309.224 1.737 C 309.091 1.788,309.019 1.770,309.064 1.697 C 309.188 1.498,307.105 0.501,306.558 0.498 C 306.389 0.497,305.885 0.386,305.438 0.250 C 304.449 -0.050,271.833 -0.130,271.833 0.168 C 271.833 0.259,271.458 0.333,271.000 0.333 C 270.542 0.333,270.167 0.258,270.167 0.167 C 270.167 0.058,267.444 0.000,262.333 0.000 L 254.500 0.000 254.500 23.083 M319.727 22.375 C 319.765 34.681,319.816 45.031,319.841 45.375 L 319.886 46.000 326.615 46.000 L 333.343 46.000 333.274 27.292 C 333.236 17.002,333.188 8.471,333.169 8.333 C 333.150 8.196,333.190 7.678,333.260 7.182 C 333.362 6.455,333.343 6.307,333.166 6.417 C 332.985 6.529,332.964 5.969,333.051 3.277 L 333.156 0.000 326.407 0.000 L 319.658 0.000 319.727 22.375 M382.281 0.969 C 381.760 1.496,381.333 2.013,381.333 2.120 C 381.333 2.227,381.247 2.367,381.141 2.433 C 381.011 2.513,380.993 2.476,381.087 2.317 C 381.163 2.189,379.000 4.293,376.279 6.994 C 373.559 9.695,371.333 12.030,371.333 12.184 C 371.333 12.545,379.242 20.399,379.677 20.470 C 380.021 20.526,384.562 16.069,384.411 15.824 C 384.331 15.695,384.666 15.364,384.884 15.357 C 385.134 15.349,387.533 13.021,387.442 12.874 C 387.393 12.794,389.578 10.521,392.299 7.823 C 395.020 5.124,396.797 3.404,396.248 4.000 C 395.333 4.995,395.363 4.975,396.617 3.762 C 397.369 3.036,397.938 2.368,397.883 2.278 C 397.827 2.189,397.858 2.162,397.952 2.220 C 398.168 2.354,398.710 1.770,398.542 1.585 C 398.473 1.509,398.502 1.495,398.606 1.555 C 398.836 1.686,399.214 1.275,399.040 1.083 C 398.972 1.008,399.002 0.995,399.106 1.055 C 399.331 1.183,399.719 0.774,399.540 0.596 C 399.472 0.528,399.525 0.497,399.657 0.528 C 399.789 0.558,399.926 0.451,399.961 0.289 C 400.022 0.010,399.572 -0.005,391.627 0.003 L 383.228 0.012 382.281 0.969 M64.265 0.358 C 64.354 0.501,63.635 0.519,61.417 0.428 L 58.450 0.307 58.569 2.362 C 58.710 4.789,58.710 4.670,58.579 5.833 C 58.522 6.337,58.538 6.663,58.613 6.558 C 58.688 6.452,58.724 15.361,58.693 26.355 L 58.635 46.345 65.401 46.326 L 72.167 46.306 72.167 28.407 L 72.167 10.508 78.542 10.462 C 82.048 10.437,84.945 10.433,84.980 10.453 C 85.015 10.472,84.954 11.935,84.843 13.703 C 84.705 15.922,84.659 21.456,84.696 31.583 L 84.750 46.250 91.458 46.294 L 98.167 46.337 98.167 28.419 L 98.167 10.500 104.046 10.500 C 110.611 10.500,110.542 10.488,110.738 11.621 C 110.890 12.499,110.891 12.790,110.743 13.818 C 110.667 14.351,110.676 14.681,110.765 14.625 C 110.856 14.569,110.893 20.934,110.857 30.433 L 110.797 46.333 117.565 46.333 L 124.333 46.333 124.333 27.573 C 124.333 17.256,124.277 8.848,124.208 8.891 C 124.140 8.933,124.100 8.619,124.120 8.192 C 124.176 7.022,123.184 4.200,122.801 4.437 C 122.699 4.500,122.661 4.478,122.716 4.388 C 122.858 4.159,121.847 2.972,121.628 3.108 C 121.529 3.168,121.495 3.143,121.552 3.051 C 121.660 2.875,120.950 2.167,120.665 2.167 C 120.574 2.167,120.500 2.107,120.500 2.033 C 120.500 1.846,119.009 1.142,118.837 1.248 C 118.759 1.296,118.669 1.258,118.638 1.164 C 118.607 1.070,118.345 0.976,118.057 0.955 C 117.768 0.934,117.574 0.849,117.626 0.765 C 117.677 0.682,117.557 0.656,117.359 0.708 C 117.161 0.760,117.040 0.736,117.090 0.656 C 117.178 0.514,117.021 0.496,115.224 0.442 C 114.752 0.428,114.400 0.360,114.442 0.292 C 114.485 0.223,103.903 0.167,90.927 0.167 C 75.309 0.167,67.333 0.223,67.333 0.333 C 67.333 0.425,67.033 0.500,66.667 0.500 C 66.300 0.500,66.000 0.425,66.000 0.333 C 66.000 0.242,65.583 0.167,65.073 0.167 C 64.418 0.167,64.182 0.223,64.265 0.358 M383.333 0.215 C 383.333 0.241,382.940 0.635,382.458 1.090 L 381.583 1.917 382.410 1.042 C 383.179 0.229,383.333 0.090,383.333 0.215 M0.000 19.927 C 0.000 34.694,0.047 39.490,0.192 39.401 C 0.312 39.327,0.340 39.355,0.265 39.476 C 0.112 39.724,0.310 40.367,0.503 40.248 C 0.584 40.198,0.618 40.318,0.581 40.514 C 0.491 40.978,1.118 42.216,1.365 42.063 C 1.477 41.995,1.505 42.024,1.435 42.136 C 1.294 42.365,1.792 43.167,2.077 43.167 C 2.343 43.167,2.866 43.745,2.727 43.885 C 2.667 43.944,2.761 44.045,2.934 44.109 C 3.108 44.173,3.288 44.276,3.333 44.338 C 3.530 44.603,4.859 45.337,4.992 45.255 C 5.072 45.205,5.166 45.247,5.199 45.348 C 5.233 45.448,5.457 45.543,5.697 45.557 C 5.938 45.571,6.106 45.630,6.070 45.688 C 5.977 45.839,7.320 46.028,7.536 45.895 C 7.652 45.823,7.670 45.860,7.585 45.997 C 7.485 46.159,7.578 46.193,7.968 46.136 C 8.251 46.094,8.444 46.122,8.398 46.197 C 8.352 46.272,18.256 46.333,30.407 46.333 L 52.500 46.333 52.500 41.167 L 52.500 36.000 37.250 36.000 C 27.194 36.000,22.000 36.057,22.000 36.167 C 22.000 36.384,20.718 36.384,20.583 36.167 C 20.527 36.075,20.105 36.000,19.647 36.000 C 19.084 36.000,18.850 36.059,18.927 36.183 C 19.008 36.314,18.395 36.350,16.786 36.308 C 15.546 36.276,14.567 36.194,14.609 36.125 C 14.652 36.056,14.544 36.000,14.369 36.000 C 13.927 36.000,13.500 35.477,13.500 34.935 C 13.500 34.685,13.444 34.515,13.375 34.558 C 13.306 34.600,13.273 26.917,13.302 17.484 L 13.354 0.333 6.677 0.333 L 0.000 0.333 0.000 19.927 M394.409 5.875 L 393.750 6.583 394.458 5.925 C 395.117 5.312,395.243 5.167,395.117 5.167 C 395.090 5.167,394.771 5.485,394.409 5.875 M392.578 7.708 L 391.583 8.750 392.625 7.755 C 393.198 7.208,393.667 6.739,393.667 6.714 C 393.667 6.590,393.502 6.741,392.578 7.708 M389.417 10.833 C 388.320 11.933,387.459 12.833,387.505 12.833 C 387.551 12.833,388.486 11.933,389.583 10.833 C 390.680 9.733,391.541 8.833,391.495 8.833 C 391.449 8.833,390.514 9.733,389.417 10.833 M299.613 10.276 C 299.470 10.419,299.831 10.855,300.003 10.748 C 300.076 10.703,300.093 10.828,300.042 11.026 C 299.990 11.224,300.016 11.343,300.099 11.292 C 300.188 11.237,300.250 13.067,300.250 15.750 C 300.250 18.253,300.194 20.267,300.125 20.224 C 300.010 20.153,299.933 20.410,299.980 20.708 C 299.991 20.777,299.921 20.833,299.823 20.833 C 299.726 20.833,299.689 20.901,299.740 20.984 C 299.868 21.191,291.434 21.271,276.458 21.204 L 268.000 21.167 268.000 15.751 L 268.000 10.335 283.792 10.292 C 292.477 10.268,299.615 10.230,299.653 10.207 C 299.691 10.185,299.673 10.216,299.613 10.276 M378.250 26.540 C 377.608 27.187,377.215 27.621,377.375 27.505 C 378.073 26.997,377.565 27.692,376.371 28.879 C 375.176 30.067,374.639 30.471,374.934 29.958 C 375.002 29.839,374.989 29.809,374.904 29.887 C 374.822 29.962,374.753 30.143,374.752 30.289 C 374.751 30.435,374.646 30.590,374.518 30.632 C 374.358 30.686,374.330 30.639,374.425 30.480 C 374.543 30.285,374.521 30.285,374.282 30.479 C 373.965 30.736,373.900 30.915,374.188 30.737 C 374.303 30.666,374.346 30.711,374.299 30.852 C 374.256 30.979,374.078 31.085,373.902 31.087 C 373.689 31.090,373.600 31.190,373.634 31.388 C 373.670 31.596,373.595 31.670,373.384 31.634 C 373.219 31.606,373.099 31.669,373.119 31.773 C 373.138 31.878,372.745 32.351,372.244 32.824 C 371.743 33.298,371.334 33.738,371.334 33.801 C 371.337 34.350,383.298 45.783,383.792 45.710 C 384.127 45.660,384.333 45.700,384.333 45.814 C 384.333 45.928,384.690 46.000,385.260 46.000 C 385.769 46.000,386.145 45.933,386.095 45.851 C 386.041 45.765,388.921 45.741,393.001 45.793 C 399.758 45.880,400.000 45.873,400.000 45.572 C 400.000 45.153,380.111 25.328,379.712 25.348 C 379.550 25.357,378.892 25.893,378.250 26.540 " stroke="none" fill="#fcfcfc" fill-rule="evenodd"></path><path id="path1" d="M337.833 0.179 C 337.833 0.278,342.943 5.439,349.189 11.648 L 360.544 22.938 349.189 34.271 C 342.943 40.505,337.833 45.656,337.833 45.719 C 337.833 45.782,341.563 45.833,346.121 45.833 L 354.408 45.833 365.787 34.460 C 372.046 28.205,377.167 22.999,377.167 22.892 C 377.167 22.784,372.010 17.591,365.708 11.351 L 354.250 0.005 346.042 0.003 C 340.295 0.001,337.833 0.054,337.833 0.179 M84.723 11.667 C 84.723 12.354,84.752 12.635,84.788 12.292 C 84.824 11.948,84.824 11.385,84.788 11.042 C 84.752 10.698,84.723 10.979,84.723 11.667 M189.565 33.667 C 189.565 34.904,189.592 35.410,189.624 34.792 C 189.656 34.173,189.656 33.160,189.624 32.542 C 189.592 31.923,189.565 32.429,189.565 33.667 M206.500 62.583 L 206.500 69.500 207.167 69.500 L 207.833 69.500 207.833 62.583 L 207.833 55.667 207.167 55.667 L 206.500 55.667 206.500 62.583 M258.333 55.974 C 255.274 56.909,253.585 59.305,253.615 62.667 C 253.690 70.939,265.379 71.910,266.643 63.749 C 267.445 58.572,263.108 54.515,258.333 55.974 M0.000 62.601 L 0.000 69.203 3.708 69.136 C 7.666 69.065,8.081 68.983,8.917 68.109 C 10.372 66.587,9.997 63.521,8.235 62.535 C 8.005 62.406,8.063 62.281,8.639 61.676 C 10.334 59.894,9.624 56.800,7.377 56.176 C 7.032 56.080,5.231 56.001,3.375 56.001 L 0.000 56.000 0.000 62.601 M15.040 62.542 L 15.083 69.083 19.458 69.128 L 23.833 69.172 23.833 68.336 L 23.833 67.500 20.417 67.500 L 17.000 67.500 17.000 65.420 L 17.000 63.340 20.375 63.295 L 23.750 63.250 23.750 62.417 L 23.750 61.583 20.375 61.538 L 17.000 61.493 17.000 59.580 L 17.000 57.667 20.417 57.667 L 23.833 57.667 23.833 56.833 L 23.833 56.000 19.415 56.000 L 14.996 56.000 15.040 62.542 M36.167 56.833 L 36.167 57.667 38.250 57.667 L 40.333 57.667 40.333 63.417 L 40.333 69.167 41.167 69.167 L 42.000 69.167 42.000 63.417 L 42.000 57.667 44.083 57.667 L 46.167 57.667 46.167 56.833 L 46.167 56.000 41.167 56.000 L 36.167 56.000 36.167 56.833 M51.000 62.583 L 51.000 69.167 52.000 69.167 L 53.000 69.167 53.000 66.167 L 53.000 63.167 56.667 63.167 L 60.333 63.167 60.333 66.167 L 60.333 69.167 61.250 69.167 L 62.167 69.167 62.167 62.583 L 62.167 56.000 61.250 56.000 L 60.333 56.000 60.333 58.750 L 60.333 61.500 56.667 61.500 L 53.000 61.500 53.000 58.750 L 53.000 56.000 52.000 56.000 L 51.000 56.000 51.000 62.583 M67.833 62.583 L 67.833 69.167 72.250 69.167 L 76.667 69.167 76.667 68.333 L 76.667 67.500 73.167 67.500 L 69.667 67.500 69.667 65.417 L 69.667 63.333 73.083 63.333 L 76.500 63.333 76.500 62.417 L 76.500 61.500 73.083 61.500 L 69.667 61.500 69.667 59.583 L 69.667 57.667 73.167 57.667 L 76.667 57.667 76.667 56.833 L 76.667 56.000 72.250 56.000 L 67.833 56.000 67.833 62.583 M89.833 62.583 L 89.833 69.167 90.750 69.167 L 91.667 69.167 91.667 66.167 L 91.667 63.167 95.333 63.167 L 99.000 63.167 99.000 66.167 L 99.000 69.167 99.917 69.167 L 100.833 69.167 100.833 62.583 L 100.833 56.000 99.917 56.000 L 99.000 56.000 99.000 58.750 L 99.000 61.500 95.333 61.500 L 91.667 61.500 91.667 58.750 L 91.667 56.000 90.750 56.000 L 89.833 56.000 89.833 62.583 M106.669 60.542 C 106.671 66.433,106.882 67.240,108.749 68.516 C 110.892 69.982,115.020 69.504,116.357 67.636 C 117.319 66.293,117.333 66.196,117.333 60.898 L 117.333 56.000 116.500 56.000 L 115.667 56.000 115.667 59.992 C 115.667 66.482,115.161 67.547,112.071 67.572 C 108.972 67.598,108.500 66.663,108.500 60.506 L 108.500 56.000 107.583 56.000 L 106.667 56.000 106.669 60.542 M123.167 62.592 L 123.167 69.183 124.125 69.133 L 125.083 69.083 125.128 64.191 L 125.172 59.298 126.514 61.107 C 127.252 62.102,127.964 63.049,128.095 63.210 C 128.226 63.372,128.333 63.540,128.333 63.583 C 128.333 63.627,128.440 63.795,128.571 63.956 C 129.239 64.784,131.472 67.828,131.798 68.358 C 132.235 69.068,132.435 69.167,133.430 69.167 L 134.167 69.167 134.167 62.583 L 134.167 56.000 133.253 56.000 L 132.338 56.000 132.294 60.869 L 132.250 65.737 131.429 64.535 C 130.977 63.874,130.546 63.333,130.471 63.333 C 130.395 63.333,130.333 63.259,130.333 63.169 C 130.333 63.078,130.226 62.872,130.094 62.710 C 129.963 62.549,129.082 61.367,128.138 60.083 C 127.193 58.800,126.363 57.725,126.294 57.694 C 126.224 57.664,126.167 57.539,126.167 57.417 C 126.167 57.294,126.108 57.169,126.036 57.139 C 125.964 57.108,125.733 56.840,125.524 56.542 C 125.168 56.034,125.082 56.000,124.155 56.000 L 123.167 56.000 123.167 62.592 M139.000 56.833 L 139.000 57.667 141.083 57.667 L 143.167 57.667 143.167 63.417 L 143.167 69.167 144.083 69.167 L 145.000 69.167 145.000 63.417 L 145.000 57.667 147.083 57.667 L 149.167 57.667 149.167 56.833 L 149.167 56.000 144.083 56.000 L 139.000 56.000 139.000 56.833 M153.833 62.583 L 153.833 69.167 158.250 69.167 L 162.667 69.167 162.667 68.333 L 162.667 67.500 159.250 67.500 L 155.833 67.500 155.833 65.420 L 155.833 63.340 159.208 63.295 L 162.583 63.250 162.583 62.417 L 162.583 61.583 159.208 61.538 L 155.833 61.493 155.833 59.580 L 155.833 57.667 159.250 57.667 L 162.667 57.667 162.667 56.833 L 162.667 56.000 158.250 56.000 L 153.833 56.000 153.833 62.583 M167.833 62.569 L 167.833 69.167 168.833 69.167 L 169.833 69.167 169.833 66.583 L 169.833 64.000 170.995 64.000 L 172.156 64.000 172.828 65.012 C 173.198 65.568,173.500 66.050,173.500 66.083 C 173.500 66.116,173.951 66.823,174.501 67.655 L 175.502 69.167 176.584 69.167 C 177.676 69.167,177.875 69.047,177.417 68.667 C 177.279 68.553,177.167 68.390,177.167 68.306 C 177.167 68.124,176.471 67.107,176.292 67.028 C 176.223 66.997,176.167 66.910,176.167 66.834 C 176.167 66.757,175.750 66.076,175.241 65.319 L 174.314 63.944 175.154 63.588 C 177.950 62.407,178.334 58.378,175.814 56.667 L 174.955 56.083 171.394 56.027 L 167.833 55.971 167.833 62.569 M237.373 62.542 L 237.417 69.083 238.375 69.133 L 239.333 69.183 239.346 64.133 C 239.354 61.356,239.401 59.186,239.451 59.313 C 239.501 59.439,239.647 59.664,239.775 59.813 C 239.904 59.961,240.724 61.058,241.598 62.250 C 242.473 63.442,243.296 64.549,243.427 64.710 C 243.559 64.872,243.667 65.040,243.667 65.083 C 243.667 65.127,243.773 65.295,243.904 65.456 C 244.034 65.618,244.714 66.519,245.415 67.458 L 246.688 69.167 247.511 69.167 L 248.333 69.167 248.333 62.583 L 248.333 56.000 247.419 56.000 L 246.505 56.000 246.461 60.761 L 246.417 65.522 244.250 62.579 C 243.058 60.960,241.933 59.462,241.750 59.249 C 241.567 59.036,240.967 58.219,240.417 57.431 L 239.417 56.000 238.373 56.000 L 237.329 56.000 237.373 62.542 M270.667 56.833 L 270.667 57.667 272.667 57.667 L 274.667 57.667 274.667 63.417 L 274.667 69.167 275.583 69.167 L 276.500 69.167 276.500 63.417 L 276.500 57.667 278.583 57.667 L 280.667 57.667 280.667 56.833 L 280.667 56.000 275.667 56.000 L 270.667 56.000 270.667 56.833 M292.500 56.833 L 292.500 57.667 294.583 57.667 L 296.667 57.667 296.667 63.417 L 296.667 69.167 297.583 69.167 L 298.500 69.167 298.500 63.417 L 298.500 57.667 300.583 57.667 L 302.667 57.667 302.667 56.833 L 302.667 56.000 297.583 56.000 L 292.500 56.000 292.500 56.833 M307.500 62.583 L 307.500 69.167 308.417 69.167 L 309.333 69.167 309.333 66.167 L 309.333 63.167 313.000 63.167 L 316.667 63.167 316.667 66.167 L 316.667 69.167 317.583 69.167 L 318.500 69.167 318.500 62.583 L 318.500 56.000 317.583 56.000 L 316.667 56.000 316.667 58.750 L 316.667 61.500 313.000 61.500 L 309.333 61.500 309.333 58.750 L 309.333 56.000 308.417 56.000 L 307.500 56.000 307.500 62.583 M324.167 62.583 L 324.167 69.167 328.583 69.167 L 333.000 69.167 333.000 68.333 L 333.000 67.500 329.583 67.500 L 326.167 67.500 326.167 65.417 L 326.167 63.333 329.500 63.333 L 332.833 63.333 332.833 62.417 L 332.833 61.500 329.500 61.500 L 326.167 61.500 326.167 59.583 L 326.167 57.667 329.583 57.667 L 333.000 57.667 333.000 56.833 L 333.000 56.000 328.583 56.000 L 324.167 56.000 324.167 62.583 M346.167 62.569 L 346.167 69.167 347.083 69.167 L 348.000 69.167 348.000 66.604 L 348.000 64.041 350.458 63.968 C 354.647 63.844,356.466 62.079,355.603 58.976 C 354.900 56.448,354.218 56.107,349.708 56.031 L 346.167 55.971 346.167 62.569 M360.500 62.569 L 360.500 69.167 361.500 69.167 L 362.500 69.167 362.500 66.583 L 362.500 64.000 363.595 64.000 C 364.671 64.000,364.969 64.123,365.215 64.667 C 365.277 64.804,365.855 65.704,366.499 66.667 C 367.144 67.629,367.743 68.585,367.831 68.792 C 368.000 69.187,370.167 69.387,370.167 69.007 C 370.167 68.873,368.206 65.815,367.143 64.292 C 366.870 63.900,366.861 63.833,367.085 63.833 C 370.178 63.833,371.088 58.387,368.303 56.543 L 367.609 56.083 364.054 56.027 L 360.500 55.971 360.500 62.569 M375.333 62.583 L 375.333 69.167 379.667 69.167 L 384.000 69.167 384.000 68.333 L 384.000 67.500 380.583 67.500 L 377.167 67.500 377.167 65.417 L 377.167 63.333 380.500 63.333 L 383.833 63.333 383.833 62.417 L 383.833 61.500 380.500 61.500 L 377.167 61.500 377.167 59.583 L 377.167 57.667 380.583 57.667 L 384.000 57.667 384.000 56.833 L 384.000 56.000 379.667 56.000 L 375.333 56.000 375.333 62.583 M388.000 56.155 C 388.000 56.240,388.094 56.409,388.209 56.530 C 388.425 56.758,389.065 57.683,391.645 61.500 L 393.166 63.750 393.166 66.458 L 393.167 69.167 394.083 69.167 L 395.000 69.167 395.000 66.414 C 395.000 63.775,395.050 63.437,395.544 62.758 C 395.614 62.662,395.933 62.232,396.252 61.802 C 396.572 61.372,396.833 60.971,396.833 60.911 C 396.833 60.851,396.965 60.631,397.125 60.421 C 397.285 60.210,397.513 59.899,397.630 59.728 C 397.747 59.557,398.328 58.719,398.922 57.867 C 400.232 55.985,400.231 55.999,399.042 56.003 C 397.900 56.006,397.931 55.986,397.065 57.250 C 395.374 59.717,394.833 60.526,394.833 60.586 C 394.833 60.622,394.651 60.920,394.429 61.248 L 394.025 61.843 393.726 61.338 C 393.562 61.061,393.369 60.833,393.297 60.833 C 393.225 60.833,393.167 60.764,393.167 60.679 C 393.167 60.593,392.487 59.506,391.656 58.262 L 390.146 56.000 389.073 56.000 C 388.483 56.000,388.000 56.070,388.000 56.155 M261.735 57.698 C 265.487 58.637,265.853 65.253,262.262 67.198 C 258.392 69.294,254.111 64.559,256.005 60.279 C 257.051 57.912,259.031 57.021,261.735 57.698 M6.870 58.042 C 7.734 58.809,7.895 59.707,7.333 60.629 C 6.869 61.390,6.448 61.500,3.989 61.500 L 1.833 61.500 1.833 59.583 L 1.833 57.667 4.141 57.667 C 6.297 57.667,6.476 57.691,6.870 58.042 M174.427 58.006 C 175.973 58.962,175.915 61.193,174.322 62.006 C 173.793 62.275,173.340 62.333,171.757 62.333 L 169.833 62.333 169.833 60.000 L 169.833 57.667 171.855 57.667 C 173.599 57.667,173.953 57.713,174.427 58.006 M352.580 57.949 C 354.200 58.721,354.247 60.919,352.665 61.918 C 352.057 62.301,351.852 62.333,350.003 62.333 L 348.000 62.333 348.000 60.000 L 348.000 57.667 349.994 57.667 C 351.524 57.667,352.127 57.732,352.580 57.949 M366.978 57.957 C 369.686 59.510,368.062 62.333,364.461 62.333 L 362.500 62.333 362.500 60.000 L 362.500 57.667 364.486 57.667 C 366.069 57.667,366.576 57.726,366.978 57.957 M7.212 63.845 C 8.357 64.789,7.979 66.803,6.556 67.344 C 6.330 67.430,5.175 67.500,3.989 67.500 L 1.833 67.500 1.833 65.417 L 1.833 63.333 4.212 63.333 L 6.591 63.333 7.212 63.845 " stroke="none" fill="#047cbc" fill-rule="evenodd"></path><path id="path2" d="M270.917 0.167 L 270.083 0.281 270.958 0.307 C 271.448 0.322,271.833 0.260,271.833 0.167 C 271.833 0.075,271.815 0.012,271.792 0.026 C 271.769 0.041,271.375 0.104,270.917 0.167 M382.494 0.958 L 381.583 1.917 382.542 1.006 C 383.432 0.159,383.576 0.000,383.453 0.000 C 383.427 0.000,382.995 0.431,382.494 0.958 M169.458 0.284 C 169.665 0.324,170.002 0.324,170.208 0.284 C 170.415 0.245,170.246 0.212,169.833 0.212 C 169.421 0.212,169.252 0.245,169.458 0.284 M61.375 0.453 C 61.627 0.491,62.040 0.491,62.292 0.453 C 62.544 0.415,62.337 0.383,61.833 0.383 C 61.329 0.383,61.123 0.415,61.375 0.453 M66.292 0.451 C 66.498 0.491,66.835 0.491,67.042 0.451 C 67.248 0.411,67.079 0.379,66.667 0.379 C 66.254 0.379,66.085 0.411,66.292 0.451 M333.050 2.833 C 333.050 3.337,333.081 3.544,333.119 3.292 C 333.158 3.040,333.158 2.627,333.119 2.375 C 333.081 2.123,333.050 2.329,333.050 2.833 M394.167 5.917 C 392.564 7.521,391.297 8.833,391.350 8.833 C 391.403 8.833,392.715 7.555,394.265 5.993 C 397.511 2.721,397.242 3.000,397.151 3.000 C 397.112 3.000,395.769 4.313,394.167 5.917 M58.731 8.833 C 58.731 9.979,58.758 10.448,58.790 9.875 C 58.823 9.302,58.823 8.365,58.790 7.792 C 58.758 7.219,58.731 7.688,58.731 8.833 M84.798 11.125 C 84.884 12.495,84.954 12.624,84.977 11.458 C 84.990 10.840,84.943 10.333,84.874 10.333 C 84.804 10.333,84.770 10.690,84.798 11.125 M110.883 18.000 C 110.883 18.504,110.915 18.710,110.953 18.458 C 110.991 18.206,110.991 17.794,110.953 17.542 C 110.915 17.290,110.883 17.496,110.883 18.000 M290.211 21.286 C 290.464 21.325,290.839 21.324,291.044 21.284 C 291.249 21.244,291.042 21.213,290.583 21.214 C 290.125 21.216,289.957 21.248,290.211 21.286 M374.573 30.408 C 372.918 32.063,371.980 33.034,372.490 32.566 C 374.469 30.750,377.743 27.521,377.665 27.462 C 377.620 27.428,376.229 28.754,374.573 30.408 M189.358 34.542 C 189.345 35.344,189.390 36.000,189.458 36.000 C 189.527 36.000,189.562 35.532,189.537 34.959 C 189.457 33.187,189.384 33.017,189.358 34.542 M20.958 36.284 C 21.165 36.324,21.502 36.324,21.708 36.284 C 21.915 36.245,21.746 36.212,21.333 36.212 C 20.921 36.212,20.752 36.245,20.958 36.284 M267.875 45.250 C 267.877 45.617,267.911 45.747,267.951 45.540 C 267.991 45.332,267.990 45.032,267.948 44.873 C 267.906 44.714,267.874 44.883,267.875 45.250 M386.792 45.790 C 387.273 45.823,388.060 45.823,388.542 45.790 C 389.023 45.756,388.629 45.728,387.667 45.728 C 386.704 45.728,386.310 45.756,386.792 45.790 M180.877 46.120 C 181.131 46.158,181.506 46.157,181.711 46.117 C 181.916 46.078,181.708 46.046,181.250 46.048 C 180.792 46.049,180.624 46.081,180.877 46.120 " stroke="none" fill="#f4f4f4" fill-rule="evenodd"></path><path id="path3" d="M270.544 0.120 C 270.797 0.158,271.172 0.157,271.377 0.117 C 271.582 0.078,271.375 0.046,270.917 0.048 C 270.458 0.049,270.291 0.081,270.544 0.120 M164.964 0.290 C 165.448 0.324,166.198 0.323,166.631 0.289 C 167.063 0.255,166.667 0.227,165.750 0.228 C 164.833 0.228,164.480 0.256,164.964 0.290 M63.042 0.453 C 63.294 0.491,63.706 0.491,63.958 0.453 C 64.210 0.415,64.004 0.383,63.500 0.383 C 62.996 0.383,62.790 0.415,63.042 0.453 M333.059 5.083 C 333.059 5.908,333.087 6.267,333.122 5.880 C 333.157 5.493,333.157 4.818,333.123 4.380 C 333.088 3.942,333.060 4.258,333.059 5.083 M84.720 13.833 C 84.720 14.429,84.750 14.673,84.787 14.375 C 84.824 14.077,84.824 13.590,84.787 13.292 C 84.750 12.994,84.720 13.237,84.720 13.833 M110.892 15.833 C 110.892 16.612,110.920 16.931,110.955 16.542 C 110.990 16.152,110.990 15.515,110.955 15.125 C 110.920 14.735,110.892 15.054,110.892 15.833 M285.631 21.290 C 286.115 21.324,286.865 21.323,287.297 21.289 C 287.730 21.255,287.333 21.227,286.417 21.228 C 285.500 21.228,285.146 21.256,285.631 21.290 M13.205 33.667 C 13.205 33.987,13.240 34.119,13.282 33.958 C 13.323 33.798,13.323 33.535,13.282 33.375 C 13.240 33.215,13.205 33.346,13.205 33.667 M16.464 36.290 C 16.948 36.324,17.698 36.323,18.131 36.289 C 18.563 36.255,18.167 36.227,17.250 36.228 C 16.333 36.228,15.980 36.256,16.464 36.290 M215.379 38.333 C 215.379 38.746,215.411 38.915,215.451 38.708 C 215.491 38.502,215.491 38.165,215.451 37.958 C 215.411 37.752,215.379 37.921,215.379 38.333 M179.208 46.119 C 179.460 46.158,179.873 46.158,180.125 46.119 C 180.377 46.081,180.171 46.050,179.667 46.050 C 179.162 46.050,178.956 46.081,179.208 46.119 " stroke="none" fill="#3cc0dc" fill-rule="evenodd"></path><path id="path4" d="" stroke="none" fill="#fc100dc" fill-rule="evenodd"></path></g></svg>