<svg id="svg" version="1.1" xmlns="http://www.w3.org/2000/svg" xmlns:xlink="http://www.w3.org/1999/xlink" width="400" height="53.333333333333336" viewBox="0, 0, 400,53.333333333333336"><g id="svgg"><path id="path0" d="M47.884 6.161 C 47.315 6.402,47.316 6.375,47.368 24.349 C 47.420 42.549,47.384 41.833,48.254 41.833 C 48.555 41.833,48.664 41.962,48.780 42.452 C 48.952 43.182,49.221 43.292,50.883 43.317 C 51.972 43.333,52.040 43.358,52.590 43.958 L 53.162 44.583 67.770 44.630 C 84.331 44.683,83.861 44.715,84.382 43.533 C 84.792 42.603,84.812 34.669,84.405 34.262 C 84.171 34.028,82.733 34.000,71.076 34.000 L 58.009 34.000 57.963 20.339 C 57.919 7.486,57.899 6.661,57.619 6.381 C 57.282 6.044,48.624 5.849,47.884 6.161 M86.971 6.118 C 86.035 6.261,86.083 5.211,86.083 25.353 C 86.083 43.017,86.099 44.004,86.381 44.286 C 86.652 44.557,87.090 44.583,91.414 44.583 C 96.686 44.583,96.489 44.628,96.627 43.407 C 96.677 42.961,96.850 42.483,97.024 42.309 C 97.320 42.014,97.333 41.444,97.333 29.333 L 97.333 16.667 100.333 16.667 L 103.333 16.667 103.333 29.922 C 103.333 44.446,103.316 44.185,104.281 44.451 C 104.539 44.523,106.720 44.582,109.127 44.582 L 113.504 44.583 114.077 43.958 C 114.392 43.615,114.730 43.333,114.829 43.333 C 115.287 43.333,115.333 42.074,115.333 29.572 L 115.333 16.667 118.000 16.667 L 120.667 16.667 120.667 29.958 C 120.668 42.878,120.677 43.265,120.995 43.787 C 121.456 44.543,121.735 44.583,126.544 44.583 L 130.838 44.583 131.410 43.958 C 131.725 43.615,132.091 43.333,132.224 43.333 C 132.656 43.333,132.667 42.962,132.667 28.053 C 132.667 11.939,132.701 12.524,131.725 11.885 C 131.373 11.654,131.333 11.505,131.333 10.409 C 131.333 9.068,131.119 8.667,130.405 8.667 C 130.087 8.667,130.000 8.579,130.000 8.262 C 130.000 7.545,129.599 7.333,128.244 7.333 C 127.166 7.333,126.989 7.290,126.826 6.986 C 126.279 5.965,127.139 6.005,106.333 6.029 C 95.929 6.040,87.216 6.081,86.971 6.118 M134.616 6.117 C 134.019 6.271,134.000 6.854,134.001 25.053 C 134.002 44.259,134.001 44.237,134.799 44.453 C 135.876 44.744,143.969 44.602,144.285 44.286 C 144.566 44.006,144.586 43.193,144.630 30.327 L 144.676 16.667 154.671 16.667 L 164.667 16.667 164.667 29.876 C 164.667 42.845,164.711 44.047,165.205 44.361 C 165.618 44.623,174.220 44.528,174.607 44.257 C 175.345 43.739,175.339 43.891,175.293 26.586 C 175.252 10.715,175.238 10.086,174.943 10.029 C 174.570 9.957,174.000 9.411,173.999 9.125 C 173.993 7.853,173.335 7.336,171.714 7.334 C 171.173 7.334,170.969 7.253,170.826 6.986 C 170.361 6.117,169.646 6.008,164.385 6.004 C 161.317 6.001,159.482 6.062,159.417 6.167 C 159.360 6.258,159.187 6.332,159.032 6.331 C 158.789 6.329,158.785 6.306,159.000 6.167 C 159.252 6.004,135.240 5.955,134.616 6.117 M178.185 6.228 C 178.050 6.391,178.008 7.923,178.039 11.520 L 178.083 16.583 184.042 16.627 L 190.000 16.671 190.004 26.127 C 190.012 42.203,190.031 43.016,190.398 43.232 C 190.571 43.333,190.909 43.594,191.148 43.810 C 191.860 44.454,192.191 44.500,196.053 44.496 C 200.265 44.491,200.852 44.403,201.523 43.669 L 202.000 43.146 202.000 29.906 L 202.000 16.667 208.405 16.667 C 214.119 16.667,214.839 16.637,215.083 16.393 C 215.326 16.150,215.350 15.599,215.303 11.419 C 215.245 6.267,215.208 6.074,214.310 6.206 C 214.057 6.243,213.889 6.212,213.935 6.137 C 214.096 5.877,178.400 5.968,178.185 6.228 M217.142 6.112 C 216.676 6.235,216.671 6.428,216.669 25.031 L 216.667 43.146 217.144 43.669 C 217.815 44.403,218.401 44.491,222.633 44.496 C 226.600 44.500,226.881 44.440,227.188 43.519 C 227.227 43.402,227.519 43.253,227.837 43.188 C 228.616 43.029,228.623 42.976,228.647 37.375 L 228.667 32.667 233.990 32.667 L 239.313 32.667 239.365 33.292 C 239.413 33.878,239.454 33.920,240.019 33.967 L 240.621 34.017 240.727 35.033 C 240.848 36.185,241.036 36.500,241.604 36.500 C 241.941 36.500,242.000 36.582,242.000 37.050 C 242.000 37.720,242.253 38.000,242.857 38.000 C 243.264 38.000,243.319 38.067,243.365 38.625 C 243.414 39.216,243.451 39.253,244.042 39.302 C 244.641 39.351,244.667 39.378,244.667 39.968 C 244.668 40.693,245.167 41.592,245.655 41.746 C 245.898 41.823,246.000 41.997,246.000 42.333 C 246.000 43.019,246.397 43.333,247.262 43.333 C 247.778 43.333,248.100 43.434,248.333 43.667 C 248.867 44.201,259.150 44.183,259.686 43.647 C 260.156 43.178,261.182 43.182,261.656 43.656 C 262.181 44.181,269.810 44.190,270.333 43.667 C 270.517 43.483,270.817 43.333,271.000 43.333 C 271.464 43.333,271.534 6.725,271.071 6.262 C 270.730 5.920,261.204 5.862,260.867 6.200 C 260.714 6.353,260.667 10.440,260.667 23.579 L 260.667 40.759 260.000 40.695 C 259.362 40.634,259.333 40.606,259.333 40.053 C 259.333 39.595,259.194 39.340,258.667 38.833 C 258.179 38.364,258.000 38.058,258.000 37.692 C 258.000 37.090,257.621 36.667,257.081 36.667 C 256.746 36.667,256.679 36.573,256.635 36.042 C 256.586 35.453,256.548 35.414,255.968 35.366 C 255.390 35.317,255.349 35.277,255.301 34.700 C 255.265 34.261,255.163 34.070,254.943 34.028 C 254.052 33.859,253.686 32.696,254.419 32.363 C 254.650 32.258,254.922 31.987,255.025 31.761 C 255.173 31.437,255.357 31.340,255.898 31.300 C 256.559 31.252,256.585 31.228,256.635 30.625 C 256.679 30.093,256.746 30.000,257.081 30.000 C 258.036 30.000,258.007 30.348,257.960 19.778 L 257.917 10.083 257.292 10.032 C 256.699 9.983,256.667 9.950,256.667 9.401 C 256.667 8.013,255.959 7.333,254.512 7.333 C 253.996 7.333,253.879 7.261,253.723 6.847 C 253.586 6.485,253.373 6.314,252.894 6.181 C 252.270 6.007,217.793 5.941,217.142 6.112 M303.417 6.081 C 303.325 6.112,303.046 6.183,302.796 6.238 C 302.462 6.311,302.305 6.478,302.204 6.869 C 302.099 7.276,301.943 7.432,301.540 7.536 C 301.038 7.666,300.671 8.334,300.668 9.125 C 300.666 9.412,300.096 9.957,299.723 10.028 C 299.504 10.070,299.402 10.261,299.366 10.700 C 299.317 11.277,299.277 11.317,298.699 11.366 C 298.121 11.414,298.080 11.454,298.032 12.032 C 297.984 12.610,297.944 12.651,297.366 12.699 C 296.785 12.747,296.747 12.786,296.698 13.375 C 296.652 13.933,296.597 14.000,296.190 14.000 C 295.582 14.000,295.333 14.281,295.333 14.966 C 295.333 15.388,295.195 15.665,294.792 16.050 L 294.250 16.568 294.750 16.660 C 295.175 16.738,295.262 16.842,295.333 17.357 C 295.414 17.945,295.927 18.658,297.333 20.137 C 297.654 20.474,298.012 20.963,298.129 21.224 C 298.246 21.488,298.561 21.782,298.837 21.886 C 299.180 22.015,299.333 22.186,299.333 22.440 C 299.333 23.057,299.518 23.333,299.929 23.333 C 300.349 23.333,300.667 23.759,300.667 24.322 C 300.667 24.634,300.766 24.666,301.708 24.664 C 302.955 24.661,303.164 24.550,303.315 23.814 C 303.408 23.359,303.524 23.235,303.916 23.167 C 304.322 23.097,304.424 22.977,304.534 22.445 C 304.621 22.027,304.897 21.586,305.333 21.167 C 305.863 20.657,306.000 20.406,306.000 19.940 C 306.000 19.383,306.031 19.351,306.625 19.302 C 307.218 19.253,307.254 19.216,307.333 18.583 C 307.413 17.948,307.444 17.917,308.000 17.917 C 308.556 17.917,308.583 17.889,308.583 17.333 C 308.583 16.809,308.634 16.744,309.083 16.694 C 309.758 16.617,310.000 16.385,310.000 15.813 C 310.000 15.416,310.070 15.333,310.405 15.333 C 310.914 15.333,311.333 14.925,311.333 14.429 C 311.333 14.142,311.467 14.010,311.875 13.894 C 312.313 13.769,312.446 13.621,312.571 13.122 C 312.663 12.752,312.851 12.464,313.040 12.404 C 313.403 12.289,313.998 11.391,313.999 10.958 C 314.000 10.601,314.527 10.051,314.943 9.972 C 315.193 9.924,315.259 9.729,315.301 8.916 C 315.335 8.264,315.436 7.873,315.593 7.785 C 315.899 7.613,315.905 7.058,315.602 6.883 C 315.475 6.810,315.342 6.600,315.308 6.417 C 315.251 6.112,304.240 5.801,303.417 6.081 M247.333 19.333 L 247.333 22.000 243.708 22.018 C 241.715 22.029,239.915 22.023,239.708 22.007 C 239.502 21.990,239.333 22.057,239.333 22.155 C 239.333 22.253,239.090 22.324,238.792 22.314 L 238.250 22.294 238.750 22.167 C 239.025 22.097,236.869 22.031,233.958 22.020 L 228.667 22.000 228.667 19.333 L 228.667 16.667 238.000 16.667 L 247.333 16.667 247.333 19.333 M300.086 26.715 C 299.720 27.101,299.339 27.641,299.238 27.914 C 299.115 28.248,298.891 28.459,298.558 28.555 C 298.199 28.658,298.017 28.845,297.905 29.224 C 297.791 29.612,297.611 29.791,297.216 29.907 C 296.761 30.041,296.676 30.151,296.633 30.657 C 296.588 31.195,296.529 31.258,296.000 31.333 L 295.417 31.417 295.370 33.289 C 295.318 35.351,295.511 36.027,296.247 36.362 C 296.501 36.478,296.694 36.757,296.784 37.137 C 296.898 37.618,297.027 37.757,297.462 37.870 C 297.880 37.978,298.000 38.099,298.000 38.410 C 298.000 38.923,298.412 39.333,298.929 39.333 C 299.261 39.333,299.333 39.417,299.333 39.800 C 299.333 40.389,299.607 40.667,300.190 40.667 C 300.597 40.667,300.652 40.734,300.698 41.292 C 300.747 41.881,300.785 41.920,301.366 41.968 C 301.944 42.016,301.984 42.056,302.032 42.634 L 302.083 43.250 303.082 43.301 C 303.736 43.335,304.127 43.435,304.215 43.593 C 304.392 43.908,304.984 43.902,305.106 43.583 C 305.189 43.369,305.919 43.333,310.268 43.333 C 313.123 43.333,315.333 43.268,315.333 43.185 C 315.333 43.103,315.520 42.989,315.747 42.932 C 316.523 42.737,316.523 41.263,315.747 41.068 C 315.400 40.981,315.333 40.865,315.333 40.349 C 315.333 39.616,315.095 39.333,314.477 39.333 C 314.069 39.333,314.015 39.266,313.968 38.708 C 313.920 38.119,313.881 38.080,313.301 38.032 C 312.723 37.984,312.683 37.944,312.634 37.366 C 312.586 36.787,312.546 36.747,311.968 36.699 C 311.390 36.651,311.349 36.610,311.301 36.032 C 311.253 35.452,311.214 35.414,310.625 35.365 C 310.017 35.315,310.000 35.295,310.000 34.657 C 310.000 34.295,309.933 34.000,309.851 34.000 C 309.770 34.000,309.656 33.814,309.599 33.586 C 309.535 33.333,309.336 33.132,309.087 33.069 C 308.770 32.990,308.649 32.814,308.543 32.276 C 308.426 31.685,308.336 31.573,307.918 31.500 C 307.523 31.432,307.408 31.308,307.315 30.853 C 307.188 30.231,306.940 30.006,306.375 30.003 C 306.076 30.001,306.000 29.905,306.000 29.533 C 306.000 28.944,305.726 28.667,305.143 28.667 C 304.736 28.667,304.681 28.599,304.635 28.042 C 304.586 27.453,304.548 27.414,303.968 27.366 C 303.390 27.317,303.349 27.277,303.301 26.699 L 303.250 26.083 302.000 26.049 L 300.750 26.014 300.086 26.715 M95.778 44.287 C 95.730 44.366,95.404 44.440,95.053 44.452 L 94.417 44.474 94.967 44.340 C 95.269 44.266,95.563 44.159,95.620 44.103 C 95.760 43.962,95.888 44.111,95.778 44.287 " stroke="none" fill="#fcfcfc" fill-rule="evenodd"></path><path id="path1" d="M272.929 6.262 C 272.728 6.462,272.667 6.886,272.667 8.062 C 272.667 9.737,272.783 10.000,273.523 10.000 C 273.931 10.000,273.985 10.067,274.032 10.625 C 274.080 11.214,274.119 11.253,274.699 11.301 C 275.277 11.349,275.317 11.390,275.366 11.968 C 275.414 12.548,275.453 12.586,276.042 12.635 C 276.649 12.685,276.667 12.705,276.667 13.343 C 276.667 13.889,276.723 14.000,277.000 14.000 C 277.501 14.000,277.951 14.549,278.081 15.319 C 278.209 16.080,278.533 16.500,278.991 16.500 C 279.211 16.500,279.319 16.674,279.396 17.159 C 279.491 17.752,279.560 17.830,280.084 17.928 C 280.578 18.021,280.667 18.105,280.667 18.485 C 280.667 19.057,280.946 19.333,281.523 19.333 C 281.931 19.333,281.985 19.401,282.032 19.958 C 282.080 20.547,282.119 20.586,282.699 20.634 C 283.277 20.683,283.317 20.723,283.366 21.301 C 283.414 21.879,283.454 21.920,284.032 21.968 C 284.610 22.016,284.651 22.056,284.699 22.634 C 284.747 23.211,284.788 23.253,285.359 23.301 C 286.358 23.384,286.431 25.829,285.442 26.111 C 285.024 26.230,284.886 26.385,284.765 26.869 C 284.656 27.307,284.501 27.505,284.212 27.578 C 283.822 27.676,283.333 28.509,283.333 29.078 C 283.333 29.404,282.789 29.952,282.390 30.028 C 282.170 30.070,282.069 30.261,282.032 30.700 C 281.984 31.277,281.944 31.317,281.366 31.366 C 280.787 31.414,280.747 31.454,280.699 32.032 C 280.651 32.610,280.610 32.651,280.032 32.699 C 279.452 32.747,279.414 32.786,279.365 33.375 C 279.319 33.933,279.264 34.000,278.857 34.000 C 278.274 34.000,278.000 34.277,278.000 34.867 C 278.000 35.250,277.927 35.333,277.595 35.333 C 277.079 35.333,276.667 35.744,276.667 36.257 C 276.667 36.569,276.547 36.688,276.125 36.797 C 275.662 36.917,275.562 37.037,275.437 37.622 C 275.327 38.141,275.196 38.332,274.898 38.406 C 274.663 38.465,274.463 38.672,274.401 38.919 C 274.344 39.147,274.230 39.333,274.149 39.333 C 274.067 39.333,274.000 39.629,274.000 39.990 C 274.000 40.628,273.983 40.648,273.375 40.698 L 272.750 40.750 272.750 42.000 L 272.750 43.250 279.296 43.294 C 287.081 43.345,287.333 43.282,287.333 41.268 C 287.333 40.717,287.365 40.684,287.958 40.635 C 288.547 40.586,288.586 40.548,288.634 39.968 C 288.683 39.390,288.723 39.349,289.301 39.301 C 289.879 39.253,289.920 39.213,289.968 38.634 C 290.016 38.056,290.056 38.016,290.634 37.968 C 291.215 37.920,291.253 37.881,291.302 37.292 C 291.348 36.734,291.403 36.667,291.810 36.667 C 292.387 36.667,292.667 36.390,292.667 35.819 C 292.667 35.438,292.755 35.354,293.249 35.261 C 293.773 35.163,293.842 35.085,293.937 34.493 C 294.030 33.910,294.096 33.833,294.501 33.833 C 295.139 33.833,295.307 33.557,295.366 32.411 C 295.413 31.492,295.448 31.413,295.833 31.363 C 296.322 31.300,296.667 30.911,296.667 30.421 C 296.667 30.187,296.831 30.011,297.169 29.883 C 297.448 29.778,297.766 29.484,297.884 29.222 C 298.081 28.783,298.426 28.369,300.042 26.633 C 301.037 25.562,300.930 23.741,299.848 23.364 C 299.456 23.227,299.346 23.080,299.303 22.638 C 299.262 22.210,299.164 22.071,298.876 22.030 C 298.464 21.972,298.000 21.415,298.000 20.979 C 298.000 20.818,297.788 20.625,297.499 20.525 C 297.198 20.420,296.929 20.168,296.825 19.895 C 296.730 19.644,296.379 19.203,296.045 18.915 C 295.544 18.481,295.422 18.248,295.344 17.570 C 295.252 16.765,295.239 16.749,294.634 16.699 C 294.056 16.651,294.016 16.610,293.968 16.032 C 293.920 15.454,293.879 15.414,293.301 15.366 C 292.723 15.317,292.683 15.277,292.634 14.699 C 292.586 14.119,292.547 14.080,291.958 14.032 C 291.366 13.983,291.333 13.949,291.333 13.402 C 291.333 12.940,291.184 12.675,290.583 12.075 C 290.134 11.625,289.833 11.173,289.833 10.946 C 289.833 10.468,289.538 10.167,289.071 10.167 C 288.778 10.167,288.689 10.041,288.604 9.507 C 288.509 8.915,288.440 8.837,287.916 8.739 C 287.422 8.646,287.333 8.562,287.333 8.181 C 287.333 7.612,287.054 7.333,286.485 7.333 C 286.108 7.333,286.020 7.244,285.931 6.768 C 285.785 5.992,285.902 6.005,279.137 6.002 C 273.951 6.000,273.157 6.034,272.929 6.262 " stroke="none" fill="#047cbc" fill-rule="evenodd"></path><path id="path2" d="" stroke="none" fill="#100bcdc" fill-rule="evenodd"></path><path id="path3" d="" stroke="none" fill="#100bcdc" fill-rule="evenodd"></path><path id="path4" d="" stroke="none" fill="#100bcdc" fill-rule="evenodd"></path></g></svg>